G75*
%MOIN*%
%OFA0B0*%
%FSLAX24Y24*%
%IPPOS*%
%LPD*%
%AMOC8*
5,1,8,0,0,1.08239X$1,22.5*
%
%ADD10C,0.0060*%
%ADD11C,0.0040*%
%ADD12C,0.0000*%
%ADD13C,0.0030*%
%ADD14C,0.0050*%
D10*
X017005Y010075D02*
X017005Y010716D01*
X016578Y010716D01*
X016791Y010396D02*
X017005Y010396D01*
X017222Y010396D02*
X017649Y010396D01*
X017867Y010502D02*
X017973Y010396D01*
X018294Y010396D01*
X018511Y010502D02*
X018618Y010396D01*
X018831Y010396D01*
X018938Y010502D01*
X018938Y010609D01*
X018831Y010716D01*
X018618Y010716D01*
X018511Y010609D01*
X018511Y010502D01*
X018618Y010396D02*
X018511Y010289D01*
X018511Y010182D01*
X018618Y010075D01*
X018831Y010075D01*
X018938Y010182D01*
X018938Y010289D01*
X018831Y010396D01*
X019156Y010609D02*
X019583Y010182D01*
X019583Y010075D01*
X019800Y010075D02*
X020227Y010075D01*
X019800Y010502D01*
X019800Y010609D01*
X019907Y010716D01*
X020121Y010716D01*
X020227Y010609D01*
X020445Y010716D02*
X020872Y010716D01*
X020872Y010075D01*
X021089Y010075D02*
X021089Y010716D01*
X021303Y010502D01*
X021516Y010716D01*
X021516Y010075D01*
X021947Y010075D02*
X021947Y010396D01*
X021734Y010609D01*
X021734Y010716D01*
X021947Y010396D02*
X022161Y010609D01*
X022161Y010716D01*
X020872Y010396D02*
X020658Y010396D01*
X019583Y010716D02*
X019156Y010716D01*
X019156Y010609D01*
X018294Y010716D02*
X018294Y010075D01*
X017973Y010075D01*
X017867Y010182D01*
X017867Y010289D01*
X017973Y010396D01*
X017867Y010502D02*
X017867Y010609D01*
X017973Y010716D01*
X018294Y010716D01*
X018547Y014601D02*
X018974Y014601D01*
X018760Y014601D02*
X018760Y015241D01*
X018974Y015028D01*
X019191Y015135D02*
X019298Y015241D01*
X019511Y015241D01*
X019618Y015135D01*
X019618Y014708D01*
X019511Y014601D01*
X019298Y014601D01*
X019191Y014708D01*
X019834Y014601D02*
X020048Y014601D01*
X019941Y014601D02*
X019941Y015241D01*
X020048Y015241D02*
X019834Y015241D01*
X019926Y021630D02*
X019926Y022271D01*
X019708Y021950D02*
X019708Y021737D01*
X019601Y021630D01*
X019388Y021630D01*
X019281Y021737D01*
X019281Y021950D01*
X019388Y022057D01*
X019601Y022057D01*
X019708Y021950D01*
X019926Y021630D02*
X020139Y021844D01*
X020353Y021630D01*
X020353Y022271D01*
X021215Y021950D02*
X021642Y021950D01*
X022504Y021630D02*
X022931Y022271D01*
X023148Y022164D02*
X023255Y022271D01*
X023469Y022271D01*
X023575Y022164D01*
X023575Y022057D01*
X023469Y021950D01*
X023255Y021950D01*
X023148Y021844D01*
X023148Y021737D01*
X023255Y021630D01*
X023469Y021630D01*
X023575Y021737D01*
X023793Y021630D02*
X023793Y022271D01*
X024006Y022057D01*
X024220Y022271D01*
X024220Y021630D01*
X022931Y021630D02*
X022504Y022271D01*
X019064Y022057D02*
X018637Y022057D01*
X019064Y021630D01*
X018637Y021630D01*
X018419Y021630D02*
X018099Y021630D01*
X017992Y021737D01*
X017992Y021950D01*
X018099Y022057D01*
X018419Y022057D01*
X018419Y022271D02*
X018419Y021630D01*
X017775Y021630D02*
X017561Y021630D01*
X017668Y021630D02*
X017668Y022271D01*
X017775Y022271D01*
X017238Y022057D02*
X017025Y022057D01*
X016918Y021950D01*
X016918Y021630D01*
X017238Y021630D01*
X017345Y021737D01*
X017238Y021844D01*
X016918Y021844D01*
X016700Y021950D02*
X016593Y021844D01*
X016380Y021844D01*
X016273Y021737D01*
X016380Y021630D01*
X016700Y021630D01*
X016700Y021950D02*
X016593Y022057D01*
X016273Y022057D01*
X016056Y022057D02*
X015842Y022057D01*
X015949Y022164D02*
X015949Y021737D01*
X015842Y021630D01*
X015626Y021737D02*
X015626Y021950D01*
X015519Y022057D01*
X015306Y022057D01*
X015199Y021950D01*
X015199Y021844D01*
X015626Y021844D01*
X015626Y021737D02*
X015519Y021630D01*
X015306Y021630D01*
X014981Y021630D02*
X014981Y022057D01*
X014981Y021844D02*
X014768Y022057D01*
X014661Y022057D01*
X013800Y021844D02*
X013586Y021630D01*
X013373Y021844D01*
X013373Y022271D01*
X013155Y022057D02*
X012942Y022271D01*
X012942Y021630D01*
X013155Y021630D02*
X012728Y021630D01*
X012511Y021630D02*
X012511Y021737D01*
X012404Y021737D01*
X012404Y021630D01*
X012511Y021630D01*
X012188Y021737D02*
X011761Y022164D01*
X011761Y021737D01*
X011868Y021630D01*
X012082Y021630D01*
X012188Y021737D01*
X012188Y022164D01*
X012082Y022271D01*
X011868Y022271D01*
X011761Y022164D01*
X010899Y022271D02*
X010579Y022271D01*
X010472Y022164D01*
X010472Y021950D01*
X010579Y021844D01*
X010899Y021844D01*
X010686Y021844D02*
X010472Y021630D01*
X010255Y021737D02*
X010255Y021950D01*
X010148Y022057D01*
X009934Y022057D01*
X009828Y021950D01*
X009828Y021844D01*
X010255Y021844D01*
X010255Y021737D02*
X010148Y021630D01*
X009934Y021630D01*
X009610Y022057D02*
X009397Y021630D01*
X009183Y022057D01*
X008966Y021737D02*
X008859Y021737D01*
X008859Y021630D01*
X008966Y021630D01*
X008966Y021737D01*
X008643Y021630D02*
X008216Y022057D01*
X008216Y022164D01*
X008323Y022271D01*
X008537Y022271D01*
X008643Y022164D01*
X008643Y021630D02*
X008216Y021630D01*
X010899Y021630D02*
X010899Y022271D01*
X013800Y022271D02*
X013800Y021844D01*
D11*
X015022Y021227D02*
X015176Y021227D01*
X015099Y021304D02*
X015099Y020997D01*
X015022Y020920D01*
X015329Y020920D02*
X015559Y020920D01*
X015636Y020997D01*
X015636Y021150D01*
X015559Y021227D01*
X015329Y021227D01*
X015789Y021150D02*
X015789Y021073D01*
X016096Y021073D01*
X016096Y020997D02*
X016096Y021150D01*
X016020Y021227D01*
X015866Y021227D01*
X015789Y021150D01*
X015866Y020920D02*
X016020Y020920D01*
X016096Y020997D01*
X016250Y020843D02*
X016250Y021227D01*
X016250Y021380D02*
X016250Y021457D01*
X016557Y021150D02*
X016634Y021227D01*
X016787Y021227D01*
X016864Y021150D01*
X016864Y020997D01*
X016787Y020920D01*
X016634Y020920D01*
X016557Y020997D01*
X016557Y021150D01*
X016403Y020767D02*
X016327Y020767D01*
X016250Y020843D01*
X017017Y021227D02*
X017094Y021227D01*
X017247Y021073D01*
X017247Y020920D02*
X017247Y021227D01*
X017401Y021150D02*
X017401Y020997D01*
X017478Y020920D01*
X017708Y020920D01*
X017708Y020767D02*
X017708Y021227D01*
X017478Y021227D01*
X017401Y021150D01*
X018322Y020920D02*
X018475Y020920D01*
X018398Y020920D02*
X018398Y021380D01*
X018475Y021380D01*
X018629Y021150D02*
X018629Y020920D01*
X018859Y020920D01*
X018935Y020997D01*
X018859Y021073D01*
X018629Y021073D01*
X018629Y021150D02*
X018705Y021227D01*
X018859Y021227D01*
X019166Y021227D02*
X019166Y020920D01*
X019242Y020920D02*
X019089Y020920D01*
X019396Y020920D02*
X019626Y020920D01*
X019703Y020997D01*
X019703Y021150D01*
X019626Y021227D01*
X019396Y021227D01*
X019242Y021227D02*
X019166Y021227D01*
X019166Y021380D02*
X019166Y021457D01*
X019856Y021227D02*
X019933Y021227D01*
X020086Y021073D01*
X020086Y020920D02*
X020086Y021227D01*
X020240Y021150D02*
X020317Y021227D01*
X020470Y021227D01*
X020547Y021150D01*
X020547Y020997D01*
X020470Y020920D01*
X020317Y020920D01*
X020240Y021073D02*
X020547Y021073D01*
X020700Y021150D02*
X020700Y020920D01*
X020854Y020920D02*
X020854Y021150D01*
X020777Y021227D01*
X020700Y021150D01*
X020854Y021150D02*
X020931Y021227D01*
X021007Y021227D01*
X021007Y020920D01*
X021161Y020920D02*
X021161Y021150D01*
X021237Y021227D01*
X021314Y021150D01*
X021314Y020920D01*
X021468Y020920D02*
X021468Y021227D01*
X021391Y021227D01*
X021314Y021150D01*
X021621Y021150D02*
X021698Y021227D01*
X021851Y021227D01*
X021928Y021150D01*
X021928Y020997D01*
X021851Y020920D01*
X021698Y020920D01*
X021621Y020997D01*
X021621Y021150D01*
X022082Y021227D02*
X022312Y021227D01*
X022388Y021150D01*
X022388Y020997D01*
X022312Y020920D01*
X022082Y020920D01*
X023002Y020920D02*
X023002Y021150D01*
X023079Y021227D01*
X023309Y021227D01*
X023309Y020920D01*
X023463Y020997D02*
X023463Y021150D01*
X023539Y021227D01*
X023693Y021227D01*
X023770Y021150D01*
X023770Y020997D01*
X023693Y020920D01*
X023539Y020920D01*
X023463Y020997D01*
X023923Y020920D02*
X023923Y021380D01*
X024230Y021380D02*
X023923Y020920D01*
X024230Y020920D02*
X024230Y021380D01*
X020240Y021150D02*
X020240Y021073D01*
X033910Y021244D02*
X033997Y021157D01*
X033910Y021244D02*
X033910Y021418D01*
X033997Y021504D01*
X034083Y021504D01*
X034170Y021418D01*
X034170Y021244D01*
X034257Y021157D01*
X034344Y021157D01*
X034430Y021244D01*
X034430Y021418D01*
X034344Y021504D01*
X034430Y021673D02*
X033910Y021673D01*
X034083Y021673D02*
X034083Y021933D01*
X034170Y022020D01*
X034344Y022020D01*
X034430Y021933D01*
X034430Y021673D01*
X034083Y021847D02*
X033910Y022020D01*
X033910Y022189D02*
X034257Y022189D01*
X034430Y022362D01*
X034257Y022536D01*
X033910Y022536D01*
X033910Y022704D02*
X034430Y022704D01*
X034257Y022878D01*
X034430Y023051D01*
X033910Y023051D01*
X034170Y022536D02*
X034170Y022189D01*
X034257Y020472D02*
X034257Y020298D01*
X034344Y020385D02*
X033997Y020385D01*
X033910Y020472D01*
X033910Y020128D02*
X033910Y019954D01*
X033910Y020041D02*
X034257Y020041D01*
X034257Y019954D01*
X034170Y019786D02*
X034257Y019699D01*
X034257Y019439D01*
X034430Y019439D02*
X033910Y019439D01*
X033910Y019699D01*
X033997Y019786D01*
X034170Y019786D01*
X034430Y020041D02*
X034517Y020041D01*
X034430Y019270D02*
X033910Y019270D01*
X034257Y019096D02*
X034430Y019270D01*
X034257Y019096D02*
X034430Y018923D01*
X033910Y018923D01*
X033997Y018754D02*
X033910Y018668D01*
X033910Y018494D01*
X033997Y018407D01*
X034083Y018407D01*
X034170Y018494D01*
X034170Y018668D01*
X034083Y018754D01*
X033997Y018754D01*
X034170Y018668D02*
X034257Y018754D01*
X034344Y018754D01*
X034430Y018668D01*
X034430Y018494D01*
X034344Y018407D01*
X034257Y018407D01*
X034170Y018494D01*
X034257Y018239D02*
X033910Y017892D01*
X033910Y017723D02*
X033910Y017376D01*
X034257Y017723D01*
X034344Y017723D01*
X034430Y017636D01*
X034430Y017463D01*
X034344Y017376D01*
X034257Y017892D02*
X033910Y018239D01*
X033997Y016692D02*
X033910Y016605D01*
X033910Y016432D01*
X033997Y016345D01*
X034170Y016345D01*
X034257Y016432D01*
X034257Y016605D01*
X034170Y016692D01*
X033997Y016692D01*
X033910Y016175D02*
X033997Y016088D01*
X034344Y016088D01*
X034257Y016001D02*
X034257Y016175D01*
X034170Y015317D02*
X033997Y015317D01*
X033910Y015230D01*
X033910Y014970D01*
X033737Y014970D02*
X034257Y014970D01*
X034257Y015230D01*
X034170Y015317D01*
X033997Y014801D02*
X033910Y014714D01*
X033910Y014541D01*
X033997Y014454D01*
X034430Y014454D01*
X034430Y014801D02*
X033997Y014801D01*
X039097Y015623D02*
X039617Y015623D01*
X039617Y015883D01*
X039530Y015970D01*
X039357Y015970D01*
X039270Y015883D01*
X039270Y015623D01*
X039270Y015453D02*
X039357Y015366D01*
X039704Y015366D01*
X039617Y015279D02*
X039617Y015453D01*
X039617Y015109D02*
X039617Y014936D01*
X039704Y015022D02*
X039357Y015022D01*
X039270Y015109D01*
X039270Y014767D02*
X039530Y014767D01*
X039617Y014680D01*
X039617Y014507D01*
X039530Y014420D01*
X039790Y014420D02*
X039270Y014420D01*
X039270Y016139D02*
X039357Y016139D01*
X039357Y016226D01*
X039270Y016226D01*
X039270Y016139D01*
X039270Y016397D02*
X039790Y016744D01*
X039790Y017259D02*
X039270Y016912D01*
X039357Y017428D02*
X039270Y017515D01*
X039357Y017601D01*
X039270Y017688D01*
X039357Y017775D01*
X039617Y017775D01*
X039617Y017944D02*
X039357Y017944D01*
X039270Y018030D01*
X039357Y018117D01*
X039270Y018204D01*
X039357Y018291D01*
X039617Y018291D01*
X039617Y018459D02*
X039357Y018459D01*
X039270Y018546D01*
X039357Y018633D01*
X039270Y018719D01*
X039357Y018806D01*
X039617Y018806D01*
X039357Y018975D02*
X039357Y019062D01*
X039270Y019062D01*
X039270Y018975D01*
X039357Y018975D01*
X039357Y019233D02*
X039270Y019319D01*
X039270Y019580D01*
X039183Y019580D02*
X039617Y019580D01*
X039617Y019319D01*
X039530Y019233D01*
X039357Y019233D01*
X039097Y019406D02*
X039097Y019493D01*
X039183Y019580D01*
X039270Y019748D02*
X039617Y019748D01*
X039443Y019748D02*
X039617Y019922D01*
X039617Y020008D01*
X039617Y020178D02*
X039704Y020178D01*
X039790Y020265D01*
X039790Y020438D01*
X039704Y020525D01*
X039617Y020525D01*
X039530Y020438D01*
X039530Y020265D01*
X039617Y020178D01*
X039530Y020265D02*
X039443Y020178D01*
X039357Y020178D01*
X039270Y020265D01*
X039270Y020438D01*
X039357Y020525D01*
X039443Y020525D01*
X039530Y020438D01*
X039617Y020694D02*
X039617Y020954D01*
X039530Y021041D01*
X039357Y021041D01*
X039270Y020954D01*
X039270Y020694D01*
X039790Y020694D01*
X039617Y021209D02*
X039617Y021296D01*
X039270Y021296D01*
X039270Y021209D02*
X039270Y021383D01*
X039357Y021640D02*
X039270Y021726D01*
X039357Y021640D02*
X039704Y021640D01*
X039617Y021726D02*
X039617Y021553D01*
X039790Y021296D02*
X039877Y021296D01*
X039357Y021897D02*
X039357Y021984D01*
X039270Y021984D01*
X039270Y021897D01*
X039357Y021897D01*
X039443Y022155D02*
X039617Y022328D01*
X039617Y022415D01*
X039617Y022584D02*
X039357Y022584D01*
X039270Y022671D01*
X039270Y022931D01*
X039617Y022931D01*
X039617Y022155D02*
X039270Y022155D01*
X039357Y017428D02*
X039617Y017428D01*
X039617Y016226D02*
X039530Y016226D01*
X039530Y016139D01*
X039617Y016139D01*
X039617Y016226D01*
X035127Y004130D02*
X035127Y003670D01*
X035280Y003670D02*
X034973Y003670D01*
X035280Y003977D02*
X035127Y004130D01*
X030280Y003977D02*
X030127Y004130D01*
X030127Y003670D01*
X030280Y003670D02*
X029973Y003670D01*
X029820Y003670D02*
X029513Y003670D01*
X029666Y003670D02*
X029666Y004130D01*
X029820Y003977D01*
X025280Y004054D02*
X025203Y004130D01*
X025050Y004130D01*
X024973Y004054D01*
X024973Y003977D01*
X025280Y003670D01*
X024973Y003670D01*
X024820Y003670D02*
X024513Y003670D01*
X024666Y003670D02*
X024666Y004130D01*
X024820Y003977D01*
X020280Y004054D02*
X020203Y004130D01*
X020050Y004130D01*
X019973Y004054D01*
X019973Y003977D01*
X020050Y003900D01*
X019973Y003823D01*
X019973Y003747D01*
X020050Y003670D01*
X020203Y003670D01*
X020280Y003747D01*
X020127Y003900D02*
X020050Y003900D01*
X019820Y003977D02*
X019666Y004130D01*
X019666Y003670D01*
X019513Y003670D02*
X019820Y003670D01*
X015280Y003900D02*
X014973Y003900D01*
X014820Y003977D02*
X014666Y004130D01*
X014666Y003670D01*
X014513Y003670D02*
X014820Y003670D01*
X015050Y003670D02*
X015050Y004130D01*
X015280Y003900D01*
X011530Y003900D02*
X011223Y003900D01*
X011070Y003977D02*
X010993Y003900D01*
X010763Y003900D01*
X010763Y003747D02*
X010763Y004054D01*
X010839Y004130D01*
X010993Y004130D01*
X011070Y004054D01*
X011070Y003977D01*
X011070Y003747D02*
X010993Y003670D01*
X010839Y003670D01*
X010763Y003747D01*
X011300Y003670D02*
X011300Y004130D01*
X011530Y003900D01*
D12*
X010100Y005600D02*
X005300Y005600D01*
X005300Y009100D01*
X001400Y009100D01*
X001400Y023700D01*
X040800Y023700D01*
X040800Y005600D01*
X036000Y005600D01*
X036000Y000750D01*
X035750Y000500D01*
X010350Y000500D01*
X010100Y000750D01*
X010100Y005600D01*
X011100Y008800D02*
X011102Y008861D01*
X011108Y008923D01*
X011118Y008983D01*
X011132Y009043D01*
X011149Y009102D01*
X011171Y009160D01*
X011196Y009216D01*
X011225Y009271D01*
X011257Y009323D01*
X011292Y009373D01*
X011331Y009421D01*
X011373Y009466D01*
X011417Y009509D01*
X011465Y009548D01*
X011514Y009585D01*
X011566Y009618D01*
X011620Y009647D01*
X011676Y009673D01*
X011733Y009696D01*
X011792Y009714D01*
X011851Y009729D01*
X011912Y009740D01*
X011973Y009747D01*
X012035Y009750D01*
X012096Y009749D01*
X012157Y009744D01*
X012218Y009735D01*
X012278Y009722D01*
X012338Y009705D01*
X012396Y009685D01*
X012452Y009661D01*
X012507Y009633D01*
X012560Y009601D01*
X012611Y009567D01*
X012659Y009529D01*
X012705Y009488D01*
X012748Y009444D01*
X012789Y009397D01*
X012826Y009348D01*
X012860Y009297D01*
X012890Y009244D01*
X012917Y009188D01*
X012940Y009131D01*
X012960Y009073D01*
X012976Y009014D01*
X012988Y008953D01*
X012996Y008892D01*
X013000Y008831D01*
X013000Y008769D01*
X012996Y008708D01*
X012988Y008647D01*
X012976Y008586D01*
X012960Y008527D01*
X012940Y008469D01*
X012917Y008412D01*
X012890Y008356D01*
X012860Y008303D01*
X012826Y008252D01*
X012789Y008203D01*
X012748Y008156D01*
X012705Y008112D01*
X012659Y008071D01*
X012611Y008033D01*
X012560Y007999D01*
X012507Y007967D01*
X012452Y007939D01*
X012396Y007915D01*
X012338Y007895D01*
X012278Y007878D01*
X012218Y007865D01*
X012157Y007856D01*
X012096Y007851D01*
X012035Y007850D01*
X011973Y007853D01*
X011912Y007860D01*
X011851Y007871D01*
X011792Y007886D01*
X011733Y007904D01*
X011676Y007927D01*
X011620Y007953D01*
X011566Y007982D01*
X011514Y008015D01*
X011465Y008052D01*
X011417Y008091D01*
X011373Y008134D01*
X011331Y008179D01*
X011292Y008227D01*
X011257Y008277D01*
X011225Y008329D01*
X011196Y008384D01*
X011171Y008440D01*
X011149Y008498D01*
X011132Y008557D01*
X011118Y008617D01*
X011108Y008677D01*
X011102Y008739D01*
X011100Y008800D01*
X033100Y006800D02*
X033102Y006861D01*
X033108Y006923D01*
X033118Y006983D01*
X033132Y007043D01*
X033149Y007102D01*
X033171Y007160D01*
X033196Y007216D01*
X033225Y007271D01*
X033257Y007323D01*
X033292Y007373D01*
X033331Y007421D01*
X033373Y007466D01*
X033417Y007509D01*
X033465Y007548D01*
X033514Y007585D01*
X033566Y007618D01*
X033620Y007647D01*
X033676Y007673D01*
X033733Y007696D01*
X033792Y007714D01*
X033851Y007729D01*
X033912Y007740D01*
X033973Y007747D01*
X034035Y007750D01*
X034096Y007749D01*
X034157Y007744D01*
X034218Y007735D01*
X034278Y007722D01*
X034338Y007705D01*
X034396Y007685D01*
X034452Y007661D01*
X034507Y007633D01*
X034560Y007601D01*
X034611Y007567D01*
X034659Y007529D01*
X034705Y007488D01*
X034748Y007444D01*
X034789Y007397D01*
X034826Y007348D01*
X034860Y007297D01*
X034890Y007244D01*
X034917Y007188D01*
X034940Y007131D01*
X034960Y007073D01*
X034976Y007014D01*
X034988Y006953D01*
X034996Y006892D01*
X035000Y006831D01*
X035000Y006769D01*
X034996Y006708D01*
X034988Y006647D01*
X034976Y006586D01*
X034960Y006527D01*
X034940Y006469D01*
X034917Y006412D01*
X034890Y006356D01*
X034860Y006303D01*
X034826Y006252D01*
X034789Y006203D01*
X034748Y006156D01*
X034705Y006112D01*
X034659Y006071D01*
X034611Y006033D01*
X034560Y005999D01*
X034507Y005967D01*
X034452Y005939D01*
X034396Y005915D01*
X034338Y005895D01*
X034278Y005878D01*
X034218Y005865D01*
X034157Y005856D01*
X034096Y005851D01*
X034035Y005850D01*
X033973Y005853D01*
X033912Y005860D01*
X033851Y005871D01*
X033792Y005886D01*
X033733Y005904D01*
X033676Y005927D01*
X033620Y005953D01*
X033566Y005982D01*
X033514Y006015D01*
X033465Y006052D01*
X033417Y006091D01*
X033373Y006134D01*
X033331Y006179D01*
X033292Y006227D01*
X033257Y006277D01*
X033225Y006329D01*
X033196Y006384D01*
X033171Y006440D01*
X033149Y006498D01*
X033132Y006557D01*
X033118Y006617D01*
X033108Y006677D01*
X033102Y006739D01*
X033100Y006800D01*
D13*
X028485Y006915D02*
X028238Y006915D01*
X028117Y006915D02*
X027870Y007162D01*
X027870Y007224D01*
X027932Y007285D01*
X028055Y007285D01*
X028117Y007224D01*
X028117Y007415D02*
X027870Y007415D01*
X027993Y007415D02*
X027993Y007785D01*
X028117Y007662D01*
X028238Y007724D02*
X028300Y007785D01*
X028423Y007785D01*
X028485Y007724D01*
X028485Y007477D01*
X028423Y007415D01*
X028300Y007415D01*
X028238Y007477D01*
X028362Y007285D02*
X028362Y006915D01*
X028117Y006915D02*
X027870Y006915D01*
X027748Y006915D02*
X027563Y006915D01*
X027501Y006977D01*
X027501Y007100D01*
X027563Y007162D01*
X027748Y007162D01*
X027748Y006792D01*
X028362Y007285D02*
X028485Y007162D01*
X027748Y007477D02*
X027687Y007415D01*
X027563Y007415D01*
X027501Y007477D01*
X027501Y007600D01*
X027563Y007662D01*
X027625Y007662D01*
X027748Y007600D01*
X027748Y007785D01*
X027501Y007785D01*
X025635Y008265D02*
X025635Y008450D01*
X025574Y008512D01*
X025450Y008512D01*
X025388Y008450D01*
X025388Y008265D01*
X025265Y008265D02*
X025635Y008265D01*
X025388Y008388D02*
X025265Y008512D01*
X025265Y008633D02*
X025265Y008880D01*
X025265Y008757D02*
X025635Y008757D01*
X025512Y008633D01*
X025135Y008450D02*
X025074Y008512D01*
X025012Y008512D01*
X024950Y008450D01*
X024888Y008512D01*
X024827Y008512D01*
X024765Y008450D01*
X024765Y008327D01*
X024827Y008265D01*
X024950Y008388D02*
X024950Y008450D01*
X025135Y008450D02*
X025135Y008327D01*
X025074Y008265D01*
X024827Y008633D02*
X024827Y008695D01*
X024765Y008695D01*
X024765Y008633D01*
X024827Y008633D01*
X024827Y008817D02*
X024765Y008879D01*
X024765Y009003D01*
X024827Y009064D01*
X024888Y009064D01*
X024950Y009003D01*
X024950Y008941D01*
X024950Y009003D02*
X025012Y009064D01*
X025074Y009064D01*
X025135Y009003D01*
X025135Y008879D01*
X025074Y008817D01*
X025265Y009063D02*
X025327Y009002D01*
X025265Y009063D02*
X025265Y009187D01*
X025327Y009249D01*
X025388Y009249D01*
X025450Y009187D01*
X025450Y009125D01*
X025450Y009187D02*
X025512Y009249D01*
X025574Y009249D01*
X025635Y009187D01*
X025635Y009063D01*
X025574Y009002D01*
X025135Y009186D02*
X024765Y009186D01*
X024888Y009186D02*
X025012Y009371D01*
X024888Y009186D02*
X024765Y009371D01*
X027501Y010677D02*
X027501Y010800D01*
X027563Y010862D01*
X027748Y010862D01*
X027748Y010492D01*
X027748Y010615D02*
X027563Y010615D01*
X027501Y010677D01*
X027870Y010615D02*
X028117Y010615D01*
X027870Y010862D01*
X027870Y010924D01*
X027932Y010985D01*
X028055Y010985D01*
X028117Y010924D01*
X028117Y011115D02*
X027870Y011115D01*
X027993Y011115D02*
X027993Y011485D01*
X028117Y011362D01*
X028238Y011424D02*
X028300Y011485D01*
X028423Y011485D01*
X028485Y011424D01*
X028485Y011177D01*
X028423Y011115D01*
X028300Y011115D01*
X028238Y011177D01*
X028362Y010985D02*
X028362Y010615D01*
X028485Y010615D02*
X028238Y010615D01*
X028485Y010862D02*
X028362Y010985D01*
X027748Y011300D02*
X027501Y011300D01*
X027563Y011115D02*
X027563Y011485D01*
X027748Y011300D01*
X030265Y011245D02*
X030265Y011183D01*
X030327Y011183D01*
X030327Y011245D01*
X030265Y011245D01*
X030265Y011367D02*
X030265Y011614D01*
X030265Y011491D02*
X030635Y011491D01*
X030512Y011367D01*
X030765Y011430D02*
X030765Y011183D01*
X031012Y011430D01*
X031074Y011430D01*
X031135Y011368D01*
X031135Y011245D01*
X031074Y011183D01*
X031074Y011062D02*
X031135Y011000D01*
X031135Y010877D01*
X031074Y010815D01*
X030827Y010815D01*
X030765Y010877D01*
X030765Y011000D01*
X030827Y011062D01*
X030635Y011000D02*
X030574Y011062D01*
X030327Y010815D01*
X030265Y010877D01*
X030265Y011000D01*
X030327Y011062D01*
X030574Y011062D01*
X030635Y011000D02*
X030635Y010877D01*
X030574Y010815D01*
X030327Y010815D01*
X030827Y011552D02*
X030765Y011613D01*
X030765Y011737D01*
X030827Y011799D01*
X030888Y011799D01*
X030950Y011737D01*
X030950Y011675D01*
X030950Y011737D02*
X031012Y011799D01*
X031074Y011799D01*
X031135Y011737D01*
X031135Y011613D01*
X031074Y011552D01*
X028974Y015415D02*
X028727Y015415D01*
X028665Y015477D01*
X028665Y015600D01*
X028727Y015662D01*
X028665Y015783D02*
X028912Y016030D01*
X028974Y016030D01*
X029035Y015968D01*
X029035Y015845D01*
X028974Y015783D01*
X028974Y015662D02*
X029035Y015600D01*
X029035Y015477D01*
X028974Y015415D01*
X028535Y015477D02*
X028535Y015600D01*
X028474Y015662D01*
X028227Y015415D01*
X028165Y015477D01*
X028165Y015600D01*
X028227Y015662D01*
X028474Y015662D01*
X028535Y015477D02*
X028474Y015415D01*
X028227Y015415D01*
X028227Y015783D02*
X028227Y015845D01*
X028165Y015845D01*
X028165Y015783D01*
X028227Y015783D01*
X028165Y015967D02*
X028165Y016214D01*
X028165Y016091D02*
X028535Y016091D01*
X028412Y015967D01*
X028665Y016030D02*
X028665Y015783D01*
X028850Y016152D02*
X028850Y016399D01*
X028665Y016337D02*
X029035Y016337D01*
X028850Y016152D01*
X034765Y016245D02*
X034765Y016183D01*
X034827Y016183D01*
X034827Y016245D01*
X034765Y016245D01*
X034765Y016367D02*
X034765Y016614D01*
X034765Y016491D02*
X035135Y016491D01*
X035012Y016367D01*
X035265Y016307D02*
X035635Y016307D01*
X035512Y016183D01*
X035574Y016062D02*
X035635Y016000D01*
X035635Y015877D01*
X035574Y015815D01*
X035327Y015815D01*
X035265Y015877D01*
X035265Y016000D01*
X035327Y016062D01*
X035265Y016183D02*
X035265Y016430D01*
X035327Y016552D02*
X035388Y016552D01*
X035450Y016613D01*
X035450Y016737D01*
X035388Y016799D01*
X035327Y016799D01*
X035265Y016737D01*
X035265Y016613D01*
X035327Y016552D01*
X035450Y016613D02*
X035512Y016552D01*
X035574Y016552D01*
X035635Y016613D01*
X035635Y016737D01*
X035574Y016799D01*
X035512Y016799D01*
X035450Y016737D01*
X035074Y016062D02*
X034827Y015815D01*
X034765Y015877D01*
X034765Y016000D01*
X034827Y016062D01*
X035074Y016062D01*
X035135Y016000D01*
X035135Y015877D01*
X035074Y015815D01*
X034827Y015815D01*
X040065Y015791D02*
X040065Y015544D01*
X040065Y015667D02*
X040435Y015667D01*
X040312Y015544D01*
X040374Y015422D02*
X040127Y015175D01*
X040065Y015237D01*
X040065Y015361D01*
X040127Y015422D01*
X040374Y015422D01*
X040435Y015361D01*
X040435Y015237D01*
X040374Y015175D01*
X040127Y015175D01*
X040065Y015054D02*
X040065Y014807D01*
X040312Y015054D01*
X040374Y015054D01*
X040435Y014992D01*
X040435Y014869D01*
X040374Y014807D01*
X040250Y014317D02*
X040065Y014317D01*
X040250Y014317D02*
X040312Y014256D01*
X040312Y014070D01*
X040065Y014070D01*
X040065Y013949D02*
X040065Y013764D01*
X040127Y013702D01*
X040250Y013702D01*
X040312Y013764D01*
X040312Y013949D01*
X040003Y013949D01*
X039942Y013887D01*
X039942Y013826D01*
X040065Y013580D02*
X040065Y013457D01*
X040065Y013518D02*
X040312Y013518D01*
X040312Y013457D01*
X040312Y013335D02*
X040312Y013150D01*
X040250Y013088D01*
X040188Y013150D01*
X040188Y013273D01*
X040127Y013335D01*
X040065Y013273D01*
X040065Y013088D01*
X040188Y012967D02*
X040188Y012720D01*
X040127Y012720D02*
X040250Y012720D01*
X040312Y012782D01*
X040312Y012905D01*
X040250Y012967D01*
X040188Y012967D01*
X040065Y012905D02*
X040065Y012782D01*
X040127Y012720D01*
X040065Y012599D02*
X040065Y012413D01*
X040127Y012352D01*
X040250Y012352D01*
X040312Y012413D01*
X040312Y012599D01*
X040435Y012599D02*
X040065Y012599D01*
X040188Y012230D02*
X040188Y011983D01*
X040127Y011983D02*
X040250Y011983D01*
X040312Y012045D01*
X040312Y012168D01*
X040250Y012230D01*
X040188Y012230D01*
X040065Y012168D02*
X040065Y012045D01*
X040127Y011983D01*
X040065Y011862D02*
X040188Y011738D01*
X040188Y011800D02*
X040188Y011615D01*
X040065Y011615D02*
X040435Y011615D01*
X040435Y011800D01*
X040374Y011862D01*
X040250Y011862D01*
X040188Y011800D01*
X040435Y013518D02*
X040497Y013518D01*
X040374Y015912D02*
X040435Y015974D01*
X040435Y016097D01*
X040374Y016159D01*
X040312Y016159D01*
X040250Y016097D01*
X040188Y016159D01*
X040127Y016159D01*
X040065Y016097D01*
X040065Y015974D01*
X040127Y015912D01*
X040250Y016035D02*
X040250Y016097D01*
X040312Y016649D02*
X040312Y016834D01*
X040250Y016896D01*
X040127Y016896D01*
X040065Y016834D01*
X040065Y016649D01*
X040435Y016649D01*
X040312Y017017D02*
X040127Y017017D01*
X040065Y017079D01*
X040065Y017264D01*
X040003Y017264D02*
X039942Y017202D01*
X039942Y017140D01*
X040003Y017264D02*
X040312Y017264D01*
X040250Y017754D02*
X040250Y017877D01*
X040065Y017754D02*
X040065Y018000D01*
X040127Y018122D02*
X040065Y018184D01*
X040065Y018369D01*
X040312Y018369D01*
X040250Y018490D02*
X040127Y018490D01*
X040065Y018552D01*
X040065Y018737D01*
X040003Y018737D02*
X040312Y018737D01*
X040312Y018552D01*
X040250Y018490D01*
X039942Y018614D02*
X039942Y018675D01*
X040003Y018737D01*
X040127Y018859D02*
X040250Y018859D01*
X040312Y018920D01*
X040312Y019044D01*
X040250Y019105D01*
X040188Y019105D01*
X040188Y018859D01*
X040127Y018859D02*
X040065Y018920D01*
X040065Y019044D01*
X040065Y019227D02*
X040312Y019227D01*
X040312Y019412D01*
X040250Y019474D01*
X040065Y019474D01*
X040127Y019595D02*
X040065Y019657D01*
X040065Y019842D01*
X040003Y019842D02*
X039942Y019780D01*
X039942Y019719D01*
X040003Y019842D02*
X040312Y019842D01*
X040312Y019595D02*
X040127Y019595D01*
X040065Y020332D02*
X040065Y020517D01*
X040127Y020579D01*
X040188Y020579D01*
X040250Y020517D01*
X040250Y020332D01*
X040250Y020517D02*
X040312Y020579D01*
X040374Y020579D01*
X040435Y020517D01*
X040435Y020332D01*
X040065Y020332D01*
X040065Y020700D02*
X040312Y020700D01*
X040312Y020824D02*
X040312Y020885D01*
X040312Y020824D02*
X040188Y020700D01*
X040127Y021007D02*
X040065Y021069D01*
X040065Y021254D01*
X040003Y021254D02*
X039942Y021192D01*
X039942Y021130D01*
X040003Y021254D02*
X040312Y021254D01*
X040250Y021375D02*
X040312Y021437D01*
X040312Y021622D01*
X040250Y021744D02*
X040312Y021805D01*
X040312Y021929D01*
X040250Y021991D01*
X040065Y021991D01*
X040065Y022112D02*
X040435Y022112D01*
X040312Y022297D02*
X040188Y022112D01*
X040065Y022297D01*
X040127Y022419D02*
X040065Y022481D01*
X040065Y022604D01*
X040127Y022666D01*
X040250Y022666D01*
X040312Y022604D01*
X040312Y022481D01*
X040250Y022419D01*
X040127Y022419D01*
X040312Y022787D02*
X040065Y022911D01*
X040312Y023034D01*
X040435Y021744D02*
X040065Y021744D01*
X040065Y021622D02*
X040065Y021437D01*
X040127Y021375D01*
X040250Y021375D01*
X040312Y021007D02*
X040127Y021007D01*
X040127Y018122D02*
X040312Y018122D01*
X040435Y018000D02*
X040435Y017754D01*
X040065Y017754D01*
X013535Y014224D02*
X013535Y013977D01*
X013473Y013915D01*
X013350Y013915D01*
X013288Y013977D01*
X013167Y013915D02*
X012920Y013915D01*
X013043Y013915D02*
X013043Y014285D01*
X013167Y014162D01*
X013288Y014224D02*
X013350Y014285D01*
X013473Y014285D01*
X013535Y014224D01*
X012798Y014224D02*
X012737Y014285D01*
X012613Y014285D01*
X012551Y014224D01*
X012551Y014162D01*
X012613Y014100D01*
X012551Y014038D01*
X012551Y013977D01*
X012613Y013915D01*
X012737Y013915D01*
X012798Y013977D01*
X012675Y014100D02*
X012613Y014100D01*
X012859Y013785D02*
X012859Y013415D01*
X012736Y013415D02*
X012983Y013415D01*
X013105Y013415D02*
X013167Y013415D01*
X013167Y013477D01*
X013105Y013477D01*
X013105Y013415D01*
X013288Y013477D02*
X013288Y013724D01*
X013535Y013477D01*
X013473Y013415D01*
X013350Y013415D01*
X013288Y013477D01*
X013288Y013724D02*
X013350Y013785D01*
X013473Y013785D01*
X013535Y013724D01*
X013535Y013477D01*
X012983Y013662D02*
X012859Y013785D01*
X010285Y012218D02*
X010224Y012280D01*
X010162Y012280D01*
X010100Y012218D01*
X010100Y012095D01*
X010162Y012033D01*
X010224Y012033D01*
X010285Y012095D01*
X010285Y012218D01*
X010100Y012218D02*
X010038Y012280D01*
X009977Y012280D01*
X009915Y012218D01*
X009915Y012095D01*
X009977Y012033D01*
X010038Y012033D01*
X010100Y012095D01*
X009977Y011912D02*
X009915Y011850D01*
X009915Y011727D01*
X009977Y011665D01*
X010224Y011665D01*
X010285Y011727D01*
X010285Y011850D01*
X010224Y011912D01*
X009835Y011788D02*
X009465Y011788D01*
X009465Y011665D02*
X009465Y011912D01*
X009527Y012033D02*
X009774Y012280D01*
X009527Y012280D01*
X009465Y012218D01*
X009465Y012095D01*
X009527Y012033D01*
X009774Y012033D01*
X009835Y012095D01*
X009835Y012218D01*
X009774Y012280D01*
X009465Y012402D02*
X009835Y012649D01*
X009712Y012770D02*
X009835Y012893D01*
X009465Y012893D01*
X009465Y012770D02*
X009465Y013017D01*
X009527Y013138D02*
X009465Y013200D01*
X009465Y013323D01*
X009527Y013385D01*
X009588Y013385D01*
X009650Y013323D01*
X009650Y013138D01*
X009527Y013138D01*
X009650Y013138D02*
X009774Y013262D01*
X009835Y013385D01*
X009835Y011788D02*
X009712Y011665D01*
X011956Y011115D02*
X012203Y011115D01*
X012080Y011115D02*
X012080Y011485D01*
X012203Y011362D01*
X012325Y011424D02*
X012386Y011485D01*
X012510Y011485D01*
X012572Y011424D01*
X012572Y011177D01*
X012510Y011115D01*
X012386Y011115D01*
X012325Y011177D01*
X012386Y010985D02*
X012325Y010924D01*
X012572Y010677D01*
X012510Y010615D01*
X012386Y010615D01*
X012325Y010677D01*
X012325Y010924D01*
X012386Y010985D02*
X012510Y010985D01*
X012572Y010924D01*
X012572Y010677D01*
X012693Y010615D02*
X012940Y010615D01*
X012817Y010615D02*
X012817Y010985D01*
X012940Y010862D01*
X012203Y010862D02*
X012203Y010492D01*
X012203Y010615D02*
X012018Y010615D01*
X011956Y010677D01*
X011956Y010800D01*
X012018Y010862D01*
X012203Y010862D01*
X008935Y008124D02*
X008873Y008185D01*
X008750Y008185D01*
X008688Y008124D01*
X008567Y008062D02*
X008443Y008185D01*
X008443Y007815D01*
X008320Y007815D02*
X008567Y007815D01*
X008688Y007877D02*
X008750Y007815D01*
X008873Y007815D01*
X008935Y007877D01*
X008935Y008124D01*
X008873Y007685D02*
X008750Y007685D01*
X008688Y007624D01*
X008935Y007377D01*
X008873Y007315D01*
X008750Y007315D01*
X008688Y007377D01*
X008688Y007624D01*
X008873Y007685D02*
X008935Y007624D01*
X008935Y007377D01*
X008567Y007377D02*
X008505Y007377D01*
X008505Y007315D01*
X008567Y007315D01*
X008567Y007377D01*
X008383Y007315D02*
X008136Y007315D01*
X008259Y007315D02*
X008259Y007685D01*
X008383Y007562D01*
X008137Y007815D02*
X008013Y007815D01*
X007951Y007877D01*
X007951Y008124D01*
X008013Y008185D01*
X008137Y008185D01*
X008198Y008124D01*
X008198Y008062D01*
X008137Y008000D01*
X007951Y008000D01*
X008137Y007815D02*
X008198Y007877D01*
X003637Y011437D02*
X003575Y011376D01*
X003451Y011376D01*
X003390Y011437D01*
X003390Y011684D01*
X003637Y011437D01*
X003637Y011684D01*
X003575Y011746D01*
X003451Y011746D01*
X003390Y011684D01*
X003451Y011876D02*
X003390Y011937D01*
X003451Y011876D02*
X003575Y011876D01*
X003637Y011937D01*
X003637Y012184D01*
X003575Y012246D01*
X003451Y012246D01*
X003390Y012184D01*
X003268Y012184D02*
X003207Y012246D01*
X003083Y012246D01*
X003021Y012184D01*
X003021Y012123D01*
X003268Y011876D01*
X003021Y011876D01*
X002900Y011937D02*
X002653Y012184D01*
X002653Y011937D01*
X002715Y011876D01*
X002838Y011876D01*
X002900Y011937D01*
X002900Y012184D01*
X002838Y012246D01*
X002715Y012246D01*
X002653Y012184D01*
X002961Y011746D02*
X002961Y011376D01*
X003084Y011376D02*
X002837Y011376D01*
X003084Y011623D02*
X002961Y011746D01*
X003207Y011437D02*
X003207Y011376D01*
X003268Y011376D01*
X003268Y011437D01*
X003207Y011437D01*
X003308Y014415D02*
X003247Y014477D01*
X003247Y014538D01*
X003308Y014600D01*
X003493Y014600D01*
X003493Y014477D01*
X003432Y014415D01*
X003308Y014415D01*
X003493Y014600D02*
X003370Y014724D01*
X003247Y014785D01*
X003738Y014785D02*
X003738Y014415D01*
X003615Y014415D02*
X003862Y014415D01*
X003862Y014662D02*
X003738Y014785D01*
X003983Y014785D02*
X004230Y014415D01*
X004351Y014477D02*
X004351Y014724D01*
X004598Y014477D01*
X004537Y014415D01*
X004413Y014415D01*
X004351Y014477D01*
X004351Y014724D02*
X004413Y014785D01*
X004537Y014785D01*
X004598Y014724D01*
X004598Y014477D01*
X004720Y014415D02*
X004967Y014415D01*
X004720Y014662D01*
X004720Y014724D01*
X004782Y014785D01*
X004905Y014785D01*
X004967Y014724D01*
X005088Y014724D02*
X005150Y014785D01*
X005273Y014785D01*
X005335Y014724D01*
X005088Y014724D02*
X005088Y014662D01*
X005335Y014415D01*
X005088Y014415D01*
X006151Y014415D02*
X006398Y014415D01*
X006151Y014662D01*
X006151Y014724D01*
X006213Y014785D01*
X006337Y014785D01*
X006398Y014724D01*
X006520Y014724D02*
X006582Y014785D01*
X006705Y014785D01*
X006767Y014724D01*
X006888Y014724D02*
X006950Y014785D01*
X007073Y014785D01*
X007135Y014724D01*
X007135Y014477D01*
X007073Y014415D01*
X006950Y014415D01*
X006888Y014477D01*
X006767Y014415D02*
X006520Y014662D01*
X006520Y014724D01*
X006520Y014415D02*
X006767Y014415D01*
X006748Y015715D02*
X006501Y016085D01*
X006417Y016165D02*
X006170Y016165D01*
X006257Y016085D02*
X006257Y015715D01*
X006380Y015715D02*
X006133Y015715D01*
X006012Y015777D02*
X005950Y015715D01*
X005827Y015715D01*
X005765Y015777D01*
X005765Y015838D01*
X005827Y015900D01*
X006012Y015900D01*
X006012Y015777D01*
X006012Y015900D02*
X005888Y016024D01*
X005765Y016085D01*
X005863Y016165D02*
X005987Y016165D01*
X006048Y016227D01*
X005801Y016474D01*
X005801Y016227D01*
X005863Y016165D01*
X006048Y016227D02*
X006048Y016474D01*
X005987Y016535D01*
X005863Y016535D01*
X005801Y016474D01*
X006293Y016535D02*
X006293Y016165D01*
X006257Y016085D02*
X006380Y015962D01*
X006600Y016165D02*
X006538Y016227D01*
X006600Y016165D02*
X006723Y016165D01*
X006785Y016227D01*
X006785Y016474D01*
X006723Y016535D01*
X006600Y016535D01*
X006538Y016474D01*
X006417Y016412D02*
X006293Y016535D01*
X006870Y016024D02*
X006932Y016085D01*
X007055Y016085D01*
X007117Y016024D01*
X007238Y016024D02*
X007300Y016085D01*
X007423Y016085D01*
X007485Y016024D01*
X007238Y016024D02*
X007238Y015962D01*
X007485Y015715D01*
X007238Y015715D01*
X007117Y015715D02*
X006870Y015962D01*
X006870Y016024D01*
X006870Y015715D02*
X007117Y015715D01*
X003635Y016515D02*
X003635Y016700D01*
X003574Y016762D01*
X003450Y016762D01*
X003388Y016700D01*
X003388Y016515D01*
X003265Y016515D02*
X003635Y016515D01*
X003388Y016638D02*
X003265Y016762D01*
X003235Y016883D02*
X002865Y016883D01*
X002865Y016762D02*
X002865Y016515D01*
X002865Y016638D02*
X003235Y016638D01*
X003112Y016515D01*
X002988Y016883D02*
X003112Y017068D01*
X003265Y017068D02*
X003265Y016945D01*
X003327Y016883D01*
X003388Y016883D01*
X003450Y016945D01*
X003450Y017068D01*
X003388Y017130D01*
X003327Y017130D01*
X003265Y017068D01*
X003450Y017068D02*
X003512Y017130D01*
X003574Y017130D01*
X003635Y017068D01*
X003635Y016945D01*
X003574Y016883D01*
X003512Y016883D01*
X003450Y016945D01*
X002988Y016883D02*
X002865Y017068D01*
X002512Y018315D02*
X002635Y018438D01*
X002265Y018438D01*
X002265Y018315D02*
X002265Y018562D01*
X002327Y018683D02*
X002574Y018930D01*
X002327Y018930D01*
X002265Y018868D01*
X002265Y018745D01*
X002327Y018683D01*
X002574Y018683D01*
X002635Y018745D01*
X002635Y018868D01*
X002574Y018930D01*
X002574Y019052D02*
X002327Y019052D01*
X002574Y019299D01*
X002327Y019299D01*
X002265Y019237D01*
X002265Y019113D01*
X002327Y019052D01*
X002574Y019052D02*
X002635Y019113D01*
X002635Y019237D01*
X002574Y019299D01*
X002635Y019420D02*
X002265Y019420D01*
X002388Y019420D02*
X002512Y019605D01*
X002388Y019420D02*
X002265Y019605D01*
X003465Y018868D02*
X003527Y018930D01*
X003774Y018930D01*
X003835Y018868D01*
X003835Y018745D01*
X003774Y018683D01*
X003712Y018683D01*
X003650Y018745D01*
X003650Y018930D01*
X003465Y018868D02*
X003465Y018745D01*
X003527Y018683D01*
X003465Y018562D02*
X003588Y018438D01*
X003588Y018500D02*
X003588Y018315D01*
X003465Y018315D02*
X003835Y018315D01*
X003835Y018500D01*
X003774Y018562D01*
X003650Y018562D01*
X003588Y018500D01*
X006965Y018491D02*
X007335Y018491D01*
X007212Y018367D01*
X007027Y018245D02*
X007027Y018183D01*
X006965Y018183D01*
X006965Y018245D01*
X007027Y018245D01*
X006965Y018367D02*
X006965Y018614D01*
X007465Y018552D02*
X007527Y018552D01*
X007774Y018799D01*
X007835Y018799D01*
X007835Y018552D01*
X007835Y018307D02*
X007465Y018307D01*
X007465Y018430D02*
X007465Y018183D01*
X007527Y018062D02*
X007465Y018000D01*
X007465Y017877D01*
X007527Y017815D01*
X007774Y017815D01*
X007835Y017877D01*
X007835Y018000D01*
X007774Y018062D01*
X007712Y018183D02*
X007835Y018307D01*
X007335Y018000D02*
X007274Y018062D01*
X007027Y017815D01*
X006965Y017877D01*
X006965Y018000D01*
X007027Y018062D01*
X007274Y018062D01*
X007335Y018000D02*
X007335Y017877D01*
X007274Y017815D01*
X007027Y017815D01*
X003835Y021315D02*
X003465Y021315D01*
X003588Y021315D02*
X003588Y021500D01*
X003650Y021562D01*
X003774Y021562D01*
X003835Y021500D01*
X003835Y021315D01*
X003588Y021438D02*
X003465Y021562D01*
X003465Y021683D02*
X003527Y021683D01*
X003774Y021930D01*
X003835Y021930D01*
X003835Y021683D01*
X002635Y021745D02*
X002635Y021868D01*
X002574Y021930D01*
X002327Y021683D01*
X002265Y021745D01*
X002265Y021868D01*
X002327Y021930D01*
X002574Y021930D01*
X002574Y022052D02*
X002635Y022113D01*
X002635Y022237D01*
X002574Y022299D01*
X002327Y022052D01*
X002265Y022113D01*
X002265Y022237D01*
X002327Y022299D01*
X002574Y022299D01*
X002635Y022420D02*
X002265Y022420D01*
X002388Y022420D02*
X002512Y022605D01*
X002388Y022420D02*
X002265Y022605D01*
X002327Y022052D02*
X002574Y022052D01*
X002635Y021745D02*
X002574Y021683D01*
X002327Y021683D01*
X002265Y021562D02*
X002265Y021315D01*
X002265Y021438D02*
X002635Y021438D01*
X002512Y021315D01*
D14*
X002700Y021300D02*
X002700Y022700D01*
X003400Y022700D01*
X003400Y021300D01*
X002700Y021300D01*
X002700Y019700D02*
X003400Y019700D01*
X003400Y018300D01*
X002700Y018300D01*
X002700Y019700D01*
X003700Y017900D02*
X003700Y016500D01*
X004400Y016500D01*
X004400Y017900D01*
X003700Y017900D01*
X004500Y017900D02*
X005600Y017900D01*
X005600Y015900D01*
X004500Y015900D01*
X004500Y017900D01*
X006200Y017800D02*
X006200Y019200D01*
X006900Y019200D01*
X006900Y017800D01*
X006200Y017800D01*
X007050Y014300D02*
X003450Y014300D01*
X003450Y012500D01*
X007050Y012500D01*
X007050Y014300D01*
X005152Y012211D02*
X003752Y012211D01*
X003752Y011511D01*
X005152Y011511D01*
X005152Y012211D01*
X010400Y011600D02*
X010400Y013600D01*
X011500Y013600D01*
X011500Y011600D01*
X010400Y011600D01*
X011800Y011700D02*
X011800Y013100D01*
X012500Y013100D01*
X012500Y011700D01*
X011800Y011700D01*
X012800Y011400D02*
X012800Y012800D01*
X013500Y012800D01*
X013500Y011400D01*
X012800Y011400D01*
X015510Y012655D02*
X015510Y008127D01*
X015509Y008127D02*
X015515Y008090D01*
X015525Y008053D01*
X015538Y008018D01*
X015554Y007984D01*
X015573Y007952D01*
X015595Y007921D01*
X015620Y007893D01*
X015648Y007867D01*
X015677Y007844D01*
X015709Y007824D01*
X015742Y007807D01*
X015777Y007792D01*
X015813Y007781D01*
X015850Y007774D01*
X015887Y007770D01*
X015925Y007769D01*
X015962Y007772D01*
X015963Y007773D02*
X022774Y007773D01*
X022773Y007773D02*
X022797Y007781D01*
X022820Y007792D01*
X022841Y007806D01*
X022860Y007823D01*
X022877Y007842D01*
X022891Y007863D01*
X022902Y007885D01*
X022910Y007909D01*
X022915Y007934D01*
X022917Y007959D01*
X022915Y007984D01*
X022911Y008009D01*
X022911Y012576D01*
X022909Y012609D01*
X022904Y012641D01*
X022896Y012673D01*
X022884Y012704D01*
X022869Y012734D01*
X022851Y012761D01*
X022830Y012787D01*
X022807Y012810D01*
X022781Y012831D01*
X022754Y012849D01*
X022724Y012864D01*
X022693Y012876D01*
X022661Y012884D01*
X022629Y012889D01*
X022596Y012891D01*
X015746Y012891D01*
X015718Y012889D01*
X015690Y012884D01*
X015662Y012876D01*
X015636Y012864D01*
X015612Y012849D01*
X015590Y012832D01*
X015569Y012811D01*
X015552Y012789D01*
X015537Y012765D01*
X015525Y012739D01*
X015517Y012711D01*
X015512Y012683D01*
X015510Y012655D01*
X021973Y008481D02*
X021975Y008511D01*
X021981Y008541D01*
X021991Y008569D01*
X022004Y008596D01*
X022021Y008621D01*
X022040Y008644D01*
X022063Y008663D01*
X022088Y008680D01*
X022115Y008693D01*
X022143Y008703D01*
X022173Y008709D01*
X022203Y008711D01*
X022233Y008709D01*
X022263Y008703D01*
X022291Y008693D01*
X022318Y008680D01*
X022343Y008663D01*
X022366Y008644D01*
X022385Y008621D01*
X022402Y008596D01*
X022415Y008569D01*
X022425Y008541D01*
X022431Y008511D01*
X022433Y008481D01*
X022431Y008451D01*
X022425Y008421D01*
X022415Y008393D01*
X022402Y008366D01*
X022385Y008341D01*
X022366Y008318D01*
X022343Y008299D01*
X022318Y008282D01*
X022291Y008269D01*
X022263Y008259D01*
X022233Y008253D01*
X022203Y008251D01*
X022173Y008253D01*
X022143Y008259D01*
X022115Y008269D01*
X022088Y008282D01*
X022063Y008299D01*
X022040Y008318D01*
X022021Y008341D01*
X022004Y008366D01*
X021991Y008393D01*
X021981Y008421D01*
X021975Y008451D01*
X021973Y008481D01*
X025700Y008250D02*
X025700Y009650D01*
X026400Y009650D01*
X026400Y008250D01*
X025700Y008250D01*
X027100Y008550D02*
X027100Y007850D01*
X028500Y007850D01*
X028500Y008550D01*
X027100Y008550D01*
X027100Y009750D02*
X028500Y009750D01*
X028500Y010450D01*
X027100Y010450D01*
X027100Y009750D01*
X029500Y010800D02*
X029500Y012200D01*
X030200Y012200D01*
X030200Y010800D01*
X029500Y010800D01*
X029800Y015400D02*
X029100Y015400D01*
X029100Y016800D01*
X029800Y016800D01*
X029800Y015400D01*
X035700Y015800D02*
X035700Y017200D01*
X036400Y017200D01*
X036400Y015800D01*
X035700Y015800D01*
X007850Y008150D02*
X007850Y007450D01*
X006450Y007450D01*
X006450Y008150D01*
X007850Y008150D01*
M02*
