G75*
%MOIN*%
%OFA0B0*%
%FSLAX24Y24*%
%IPPOS*%
%LPD*%
%AMOC8*
5,1,8,0,0,1.08239X$1,22.5*
%
%ADD10R,0.0946X0.0316*%
%ADD11C,0.0600*%
%ADD12R,0.0592X0.0671*%
%ADD13R,0.0671X0.0592*%
%ADD14R,0.0671X0.0336*%
%ADD15R,0.1025X0.0710*%
%ADD16R,0.0710X0.1025*%
%ADD17R,0.0680X0.2980*%
%ADD18R,0.0680X0.2580*%
%ADD19R,2.5900X0.3000*%
%ADD20C,0.1980*%
%ADD21R,0.0316X0.0946*%
%ADD22C,0.0780*%
%ADD23C,0.0480*%
D10*
X004226Y011000D03*
X004226Y011500D03*
X004226Y012000D03*
X004226Y012500D03*
X004226Y013000D03*
X004226Y013500D03*
X004226Y014000D03*
X006274Y014000D03*
X006274Y013500D03*
X006274Y013000D03*
X006274Y012500D03*
X006274Y012000D03*
X006274Y011500D03*
X006274Y011000D03*
X028524Y015150D03*
X028524Y015650D03*
X028524Y016150D03*
X028524Y016650D03*
X028524Y017150D03*
X028524Y017650D03*
X028524Y018150D03*
X028524Y018650D03*
X028524Y019150D03*
X028524Y019650D03*
X028524Y020150D03*
X028524Y020650D03*
X028524Y021150D03*
X028524Y021650D03*
X028524Y022150D03*
X028524Y022650D03*
X033576Y022650D03*
X033576Y022150D03*
X033576Y021650D03*
X033576Y021150D03*
X033576Y020650D03*
X033576Y020150D03*
X033576Y019650D03*
X033576Y019150D03*
X033576Y018650D03*
X033576Y018150D03*
X033576Y017650D03*
X033576Y017150D03*
X033576Y016650D03*
X033576Y016150D03*
X033576Y015650D03*
X033576Y015150D03*
X034824Y015400D03*
X034824Y015900D03*
X034824Y016400D03*
X034824Y016900D03*
X034824Y017400D03*
X034824Y017900D03*
X034824Y018400D03*
X034824Y018900D03*
X034824Y019400D03*
X034824Y019900D03*
X034824Y020400D03*
X034824Y020900D03*
X034824Y021400D03*
X034824Y021900D03*
X034824Y022400D03*
X034824Y022900D03*
X039876Y022900D03*
X039876Y022400D03*
X039876Y021900D03*
X039876Y021400D03*
X039876Y020900D03*
X039876Y020400D03*
X039876Y019900D03*
X039876Y019400D03*
X039876Y018900D03*
X039876Y018400D03*
X039876Y017900D03*
X039876Y017400D03*
X039876Y016900D03*
X039876Y016400D03*
X039876Y015900D03*
X039876Y015400D03*
D11*
X039050Y012500D03*
X038050Y012500D03*
X037050Y012500D03*
X036050Y012500D03*
X035050Y012500D03*
X034050Y012500D03*
X033050Y012500D03*
X032050Y012500D03*
X031050Y012500D03*
X030050Y012500D03*
X026750Y010100D03*
X030050Y009500D03*
X031050Y009500D03*
X032050Y009500D03*
X033050Y009500D03*
X034050Y009500D03*
X035050Y009500D03*
X036050Y009500D03*
X037050Y009500D03*
X038050Y009500D03*
X039050Y009500D03*
X026750Y008200D03*
X026550Y017000D03*
X025550Y017000D03*
X024550Y017000D03*
X023550Y017000D03*
X022550Y017000D03*
X021550Y017000D03*
X020550Y017000D03*
X019550Y017000D03*
X018550Y017000D03*
X017550Y017000D03*
X016550Y017000D03*
X015550Y017000D03*
X014550Y017000D03*
X013550Y017000D03*
X012550Y017000D03*
X011550Y017000D03*
X010550Y017000D03*
X009550Y017000D03*
X008550Y017000D03*
X007550Y017000D03*
X006550Y017000D03*
X006550Y023000D03*
X007550Y023000D03*
X008550Y023000D03*
X009550Y023000D03*
X010550Y023000D03*
X011550Y023000D03*
X012550Y023000D03*
X013550Y023000D03*
X014550Y023000D03*
X015550Y023000D03*
X016550Y023000D03*
X017550Y023000D03*
X018550Y023000D03*
X019550Y023000D03*
X020550Y023000D03*
X021550Y023000D03*
X022550Y023000D03*
X023550Y023000D03*
X024550Y023000D03*
X025550Y023000D03*
X026550Y023000D03*
D12*
X005976Y006300D03*
X006724Y006300D03*
X008376Y006300D03*
X009124Y006300D03*
X016276Y009600D03*
X017024Y009600D03*
X022176Y009800D03*
X022924Y009800D03*
X013324Y015200D03*
X012576Y015200D03*
X011524Y015200D03*
X010776Y015200D03*
X008324Y013900D03*
X007576Y013900D03*
X002924Y013100D03*
X002176Y013100D03*
X002576Y010500D03*
X003324Y010500D03*
X007576Y011000D03*
X008324Y011000D03*
D13*
X009850Y011426D03*
X009850Y012174D03*
X009850Y013126D03*
X009850Y013874D03*
X008450Y012974D03*
X007450Y012974D03*
X007450Y012226D03*
X008450Y012226D03*
X008450Y014926D03*
X007450Y014926D03*
X007450Y015674D03*
X008450Y015674D03*
X003050Y014774D03*
X003050Y014026D03*
X002050Y014026D03*
X002050Y014774D03*
X002050Y016826D03*
X002050Y017574D03*
X002050Y012174D03*
X003050Y012174D03*
X003050Y011426D03*
X002050Y011426D03*
D14*
X011129Y011579D03*
X011125Y012079D03*
X011125Y012579D03*
X011125Y013079D03*
X011121Y013579D03*
X011121Y014079D03*
X013885Y014079D03*
X013885Y013579D03*
X013889Y013079D03*
X013889Y012579D03*
X013889Y012079D03*
X013893Y011579D03*
X013889Y011079D03*
X013889Y010579D03*
X011129Y010579D03*
X011129Y011079D03*
D15*
X003050Y016309D03*
X003050Y017491D03*
D16*
X016359Y011000D03*
X017541Y011000D03*
X021659Y011400D03*
X022841Y011400D03*
D17*
X023050Y002050D03*
X024050Y002050D03*
X025050Y002050D03*
X026050Y002050D03*
X027050Y002050D03*
X028050Y002050D03*
X029050Y002050D03*
X030050Y002050D03*
X031050Y002050D03*
X032050Y002050D03*
X033050Y002050D03*
X034050Y002050D03*
X035050Y002050D03*
X022050Y002050D03*
X021050Y002050D03*
X020050Y002050D03*
X019050Y002050D03*
X018050Y002050D03*
X017050Y002050D03*
X016050Y002050D03*
X015050Y002050D03*
X013050Y002050D03*
X012050Y002050D03*
X011050Y002050D03*
D18*
X014050Y002250D03*
D19*
X023050Y002000D03*
D20*
X034050Y006800D03*
X012050Y008800D03*
D21*
X009050Y009324D03*
X008550Y009324D03*
X008050Y009324D03*
X007550Y009324D03*
X007050Y009324D03*
X006550Y009324D03*
X006050Y009324D03*
X006050Y007276D03*
X006550Y007276D03*
X007050Y007276D03*
X007550Y007276D03*
X008050Y007276D03*
X008550Y007276D03*
X009050Y007276D03*
D22*
X004790Y018531D03*
X004790Y019516D03*
X002822Y020500D03*
X004790Y021484D03*
X004790Y022469D03*
D23*
X007050Y020500D03*
X010050Y019500D03*
X012050Y019500D03*
X014050Y019500D03*
X015650Y020400D03*
X017350Y019500D03*
X018150Y018400D03*
X020550Y020000D03*
X021550Y020000D03*
X022550Y020500D03*
X023550Y020500D03*
X024550Y020500D03*
X025550Y020500D03*
X026800Y018250D03*
X030050Y020250D03*
X032550Y022800D03*
X035950Y020500D03*
X038550Y023000D03*
X036750Y017000D03*
X036050Y015500D03*
X036050Y014500D03*
X037550Y013900D03*
X029550Y015000D03*
X028550Y014050D03*
X028450Y013200D03*
X026550Y013200D03*
X024550Y013950D03*
X023550Y013500D03*
X021050Y012900D03*
X021050Y011400D03*
X023150Y010500D03*
X022050Y009000D03*
X019550Y009500D03*
X017050Y008800D03*
X016450Y007700D03*
X015850Y007500D03*
X017450Y007600D03*
X015250Y008600D03*
X014050Y007500D03*
X012050Y007500D03*
X010050Y007500D03*
X009750Y006400D03*
X011050Y005500D03*
X011050Y004500D03*
X015050Y004500D03*
X016550Y004500D03*
X017550Y004500D03*
X018550Y004500D03*
X019550Y004500D03*
X016750Y005900D03*
X023250Y006500D03*
X025600Y005200D03*
X025650Y004500D03*
X026450Y004500D03*
X027050Y004800D03*
X027650Y005300D03*
X029550Y004000D03*
X031050Y004000D03*
X034050Y004500D03*
X032050Y006000D03*
X028050Y009100D03*
X018150Y011300D03*
X015750Y010200D03*
X015650Y011300D03*
X015650Y012200D03*
X015550Y012900D03*
X013150Y013100D03*
X012050Y013400D03*
X014550Y014500D03*
X018050Y012900D03*
X020550Y015200D03*
X021550Y015750D03*
X019850Y016400D03*
X011750Y011200D03*
X011750Y010700D03*
X013150Y011100D03*
X009750Y010500D03*
X008450Y011600D03*
X005650Y010500D03*
X005550Y012400D03*
X005050Y013000D03*
X006750Y015300D03*
X005050Y015500D03*
X002050Y015500D03*
X009750Y015000D03*
X001950Y010500D03*
X005650Y008100D03*
X007550Y008500D03*
X007550Y006500D03*
M02*
